<?xml version="1.0" encoding="utf-8"?>
<!-- Generator: Adobe Illustrator 24.1.0, SVG Export Plug-In . SVG Version: 6.00 Build 0)  -->
<svg version="1.1" id="Layer_1" xmlns="http://www.w3.org/2000/svg" xmlns:xlink="http://www.w3.org/1999/xlink" x="0px" y="0px"
	 viewBox="0 0 200 50" style="enable-background:new 0 0 200 50;" xml:space="preserve">
<style type="text/css">
	.st0{fill:#A0A2A4;}
	.st1{fill:url(#SVGID_1_);}
	.st2{fill:url(#SVGID_2_);}
	.st3{fill:url(#SVGID_3_);}
	.st4{fill:url(#SVGID_4_);}
	.st5{fill:url(#SVGID_5_);}
	.st6{fill:url(#SVGID_6_);}
	.st7{fill:url(#SVGID_7_);}
	.st8{fill:#0079C0;}
	.st9{fill:#78A12F;}
	.st10{fill:url(#SVGID_8_);}
	.st11{fill:url(#SVGID_9_);}
</style>
<g>
	<g>
		<path class="st0" d="M19.12,44.63l0.75-6.16c0.02-0.16,0.03-0.28,0.03-0.38c0-0.38-0.2-0.6-0.6-0.68
			c-0.24-0.05-0.36-0.11-0.36-0.18c0-0.09,0.07-0.13,0.2-0.13c0.14,0,0.3,0.01,0.51,0.03c0.41,0.04,1.2,0.06,2.37,0.06
			c1.1,0,1.91-0.02,2.42-0.06c0.24-0.02,0.41-0.03,0.51-0.03c0.12,0,0.18,0.05,0.18,0.16l-0.01,0.62l0.03,0.96
			c0,0.14-0.05,0.2-0.15,0.2c-0.1,0-0.16-0.09-0.17-0.26c-0.03-0.47-0.15-0.77-0.38-0.9c-0.23-0.14-0.73-0.2-1.5-0.2h-0.51
			l-1.14-0.03c-0.18,0-0.29,0.02-0.34,0.07c-0.05,0.05-0.09,0.16-0.11,0.35l-0.33,2.75c-0.01,0.06-0.01,0.1-0.01,0.13
			c0,0.09,0.09,0.14,0.27,0.14h1.77c0.57,0,0.92-0.26,1.05-0.78c0.03-0.1,0.08-0.15,0.14-0.16c0.09,0,0.13,0.05,0.13,0.16
			c0,0.14-0.03,0.35-0.08,0.61c-0.06,0.32-0.1,0.69-0.12,1.13c-0.02,0.31-0.04,0.51-0.06,0.6c-0.02,0.09-0.07,0.14-0.13,0.14
			c-0.08,0-0.13-0.05-0.13-0.16l-0.01-0.29c0-0.46-0.33-0.7-0.99-0.7h-1.51c-0.19,0-0.31,0.01-0.35,0.04
			c-0.04,0.03-0.07,0.11-0.09,0.25l-0.33,2.72c0,0.05-0.01,0.1-0.01,0.15c0,0.21,0.06,0.34,0.19,0.41c0.13,0.06,0.4,0.1,0.83,0.1
			c1.86,0,3.02-0.34,3.46-1.02c0.11-0.16,0.19-0.23,0.26-0.23c0.08,0,0.12,0.05,0.12,0.14c0,0.13-0.07,0.32-0.2,0.57
			c-0.13,0.25-0.28,0.46-0.45,0.66c-0.17,0.19-0.34,0.31-0.5,0.37c-0.16,0.06-0.43,0.09-0.8,0.09c-0.18,0-0.55-0.02-1.1-0.05
			c-0.41-0.03-0.81-0.04-1.2-0.04c-0.44,0-0.85,0.02-1.22,0.04c-0.37,0.03-0.66,0.04-0.88,0.04c-0.16,0-0.23-0.04-0.23-0.13
			c0-0.07,0.08-0.12,0.23-0.16c0.23-0.06,0.37-0.14,0.44-0.24C19.02,45.21,19.08,44.99,19.12,44.63z"/>
		<path class="st0" d="M27.19,41.9c0.29-0.39,0.61-0.7,0.97-0.92c0.36-0.22,0.71-0.34,1.04-0.34c0.26,0,0.48,0.14,0.66,0.41
			c0.18,0.27,0.26,0.61,0.26,1.02c0,0.24-0.02,0.54-0.05,0.91l-0.14,1.65c0,0.04-0.01,0.08-0.01,0.12c0,0.22,0.06,0.33,0.18,0.33
			c0.21,0,0.41-0.14,0.61-0.43c0.08-0.13,0.16-0.19,0.23-0.19c0.08,0,0.11,0.04,0.11,0.13c-0.01,0.23-0.19,0.49-0.53,0.8
			c-0.34,0.31-0.64,0.46-0.88,0.46c-0.3,0-0.45-0.28-0.45-0.84c0-0.13,0.01-0.3,0.03-0.52l0.16-1.94c0.01-0.08,0.01-0.18,0.01-0.29
			c0-0.33-0.06-0.59-0.19-0.79c-0.12-0.2-0.29-0.29-0.5-0.29c-0.36,0-0.67,0.22-0.93,0.66s-0.44,1.03-0.53,1.77L27,45.53
			c-0.01,0.13-0.05,0.21-0.11,0.25c-0.06,0.04-0.17,0.06-0.33,0.06c-0.22,0-0.32-0.07-0.31-0.2l0.01-0.11l0.2-1.65
			c0.03-0.25,0.06-0.51,0.1-0.76c0.06-0.44,0.09-0.77,0.09-0.99c0-0.41-0.09-0.62-0.29-0.62c-0.07,0-0.16,0.05-0.26,0.15
			c-0.1,0.1-0.17,0.22-0.22,0.35c-0.05,0.16-0.11,0.23-0.18,0.23c-0.08,0-0.13-0.06-0.13-0.18c0-0.29,0.13-0.59,0.38-0.92
			c0.25-0.33,0.49-0.49,0.72-0.49c0.15,0,0.28,0.09,0.37,0.27c0.1,0.18,0.14,0.42,0.14,0.71V41.9z"/>
		<path class="st0" d="M34.89,44.45c-0.74,0.96-1.49,1.44-2.27,1.44c-0.31,0-0.56-0.12-0.76-0.36c-0.2-0.24-0.3-0.54-0.3-0.92
			c0-0.5,0.12-1.03,0.36-1.6c0.24-0.56,0.54-1.05,0.92-1.46c0.56-0.61,1.15-0.91,1.77-0.91c0.22,0,0.45,0.04,0.71,0.12
			c0.09,0.03,0.17,0.05,0.23,0.05c0.12,0,0.28-0.15,0.46-0.44c0.09-0.14,0.16-0.21,0.21-0.21c0.05,0,0.08,0.04,0.08,0.12
			c0,0.03-0.01,0.07-0.02,0.11c-0.01,0.03-0.04,0.15-0.08,0.36l-0.15,0.69c-0.09,0.4-0.18,0.91-0.26,1.53
			c-0.08,0.62-0.13,1.05-0.13,1.28c0,0.53,0.08,0.79,0.25,0.79c0.08,0,0.19-0.07,0.33-0.21c0.13-0.14,0.24-0.29,0.31-0.45
			c0.06-0.14,0.12-0.21,0.19-0.21c0.07,0,0.11,0.04,0.11,0.13c0,0.27-0.17,0.59-0.5,0.97c-0.34,0.38-0.62,0.56-0.86,0.56
			c-0.16,0-0.29-0.09-0.37-0.28C35.03,45.36,34.96,44.99,34.89,44.45z M34.62,40.92c-0.45,0-0.87,0.25-1.28,0.76
			c-0.27,0.33-0.49,0.76-0.68,1.27c-0.19,0.51-0.28,0.96-0.28,1.36c0,0.63,0.28,0.95,0.85,0.95c0.36,0,0.72-0.19,1.09-0.58
			c0.37-0.38,0.58-0.79,0.64-1.22c0.03-0.24,0.06-0.44,0.1-0.6l0.12-0.57c0.07-0.32,0.12-0.53,0.15-0.64
			c0.03-0.12,0.05-0.22,0.05-0.32c0-0.11-0.08-0.2-0.23-0.29C34.97,40.96,34.8,40.92,34.62,40.92z"/>
		<path class="st0" d="M38.95,41.88c0.27-0.42,0.58-0.74,0.93-0.96c0.35-0.22,0.72-0.34,1.12-0.34c0.39,0,0.71,0.15,0.95,0.43
			c0.24,0.29,0.36,0.67,0.36,1.13c0,0.81-0.28,1.61-0.85,2.4c-0.3,0.41-0.64,0.74-1.04,0.98c-0.4,0.24-0.79,0.36-1.19,0.36
			c-0.41,0-0.74-0.1-0.98-0.29c-0.24-0.19-0.36-0.45-0.36-0.78c0-0.2,0.01-0.42,0.04-0.64l0.79-6.41c0.02-0.19,0.03-0.3,0.03-0.35
			c0-0.14-0.11-0.22-0.34-0.22h-0.3c-0.17,0-0.25-0.04-0.25-0.12c0-0.09,0.09-0.14,0.25-0.15c0.49-0.03,0.83-0.07,1.02-0.11
			c0.13-0.03,0.23-0.04,0.3-0.04c0.08,0,0.12,0.05,0.12,0.15c0,0.03,0,0.05-0.01,0.08L38.95,41.88z M38.77,43.38l-0.12,0.98
			c-0.02,0.14-0.03,0.28-0.03,0.42c0,0.52,0.26,0.78,0.77,0.78c0.52,0,1.01-0.31,1.46-0.93c0.45-0.62,0.68-1.29,0.68-2
			c0-0.44-0.1-0.78-0.29-1.03c-0.19-0.25-0.46-0.38-0.79-0.38c-0.44,0-0.82,0.19-1.12,0.57C39.04,42.17,38.85,42.7,38.77,43.38z"/>
		<path class="st0" d="M43.43,44.23l0.79-6.46c0.02-0.18,0.03-0.29,0.04-0.34c0.01-0.15-0.11-0.22-0.36-0.22h-0.32
			c-0.17,0-0.26-0.04-0.25-0.12c0-0.1,0.09-0.15,0.25-0.15c0.49-0.03,0.84-0.06,1.06-0.11c0.12-0.03,0.22-0.04,0.29-0.04
			c0.08,0,0.12,0.05,0.12,0.15l-0.01,0.08l-0.89,7.36c-0.02,0.16-0.03,0.27-0.03,0.34c0,0.24,0.08,0.36,0.24,0.36
			c0.14,0,0.29-0.07,0.45-0.22c0.16-0.15,0.3-0.34,0.43-0.57c0.05-0.09,0.1-0.13,0.15-0.13c0.09,0,0.13,0.04,0.13,0.13
			c0,0.06-0.05,0.19-0.16,0.38c-0.1,0.19-0.21,0.35-0.31,0.48c-0.16,0.2-0.35,0.37-0.56,0.5c-0.21,0.14-0.4,0.21-0.55,0.21
			c-0.37,0-0.55-0.34-0.55-1.03C43.39,44.64,43.41,44.44,43.43,44.23z"/>
		<path class="st0" d="M46.66,43.2l0.27-1.57c0.02-0.11,0.03-0.22,0.03-0.31c0-0.17-0.12-0.25-0.37-0.25h-0.34
			c-0.19,0-0.28-0.04-0.27-0.13c0-0.1,0.09-0.15,0.27-0.15c0.39,0,0.76-0.04,1.13-0.11c0.14-0.03,0.25-0.04,0.32-0.04
			c0.09,0,0.13,0.05,0.13,0.15l-0.01,0.07l-0.35,1.75c-0.18,0.87-0.26,1.53-0.26,1.98c0,0.25,0.07,0.38,0.2,0.39
			c0.19,0.01,0.38-0.16,0.56-0.53c0.05-0.1,0.1-0.15,0.15-0.15c0.07,0,0.1,0.04,0.1,0.13c-0.02,0.27-0.18,0.58-0.49,0.9
			c-0.31,0.33-0.58,0.49-0.82,0.49c-0.13,0-0.23-0.09-0.31-0.28c-0.08-0.19-0.12-0.43-0.12-0.73C46.46,44.5,46.53,43.96,46.66,43.2z
			 M47.75,38.05c0.04,0,0.07,0.04,0.11,0.11c0.07,0.13,0.11,0.21,0.13,0.23l0.14,0.21c0.04,0.05,0.06,0.1,0.06,0.13
			c0,0.04-0.03,0.09-0.1,0.15c-0.09,0.09-0.21,0.22-0.34,0.39c-0.05,0.06-0.1,0.1-0.14,0.1c-0.05,0-0.1-0.04-0.13-0.12
			c-0.09-0.19-0.17-0.32-0.24-0.41c-0.04-0.05-0.06-0.1-0.06-0.13c0-0.05,0.02-0.09,0.06-0.14l0.18-0.18
			c0.02-0.02,0.08-0.09,0.17-0.21C47.65,38.08,47.71,38.04,47.75,38.05z"/>
		<path class="st0" d="M50.75,41.9c0.29-0.39,0.61-0.7,0.97-0.92c0.36-0.22,0.71-0.34,1.04-0.34c0.26,0,0.48,0.14,0.66,0.41
			c0.18,0.27,0.26,0.61,0.26,1.02c0,0.24-0.02,0.54-0.05,0.91l-0.14,1.65c0,0.04-0.01,0.08-0.01,0.12c0,0.22,0.06,0.33,0.18,0.33
			c0.21,0,0.41-0.14,0.61-0.43c0.08-0.13,0.16-0.19,0.23-0.19c0.08,0,0.11,0.04,0.11,0.13c-0.01,0.23-0.19,0.49-0.53,0.8
			c-0.34,0.31-0.64,0.46-0.88,0.46c-0.3,0-0.45-0.28-0.45-0.84c0-0.13,0.01-0.3,0.03-0.52l0.16-1.94c0.01-0.08,0.01-0.18,0.01-0.29
			c0-0.33-0.06-0.59-0.19-0.79c-0.12-0.2-0.29-0.29-0.5-0.29c-0.36,0-0.67,0.22-0.93,0.66s-0.44,1.03-0.53,1.77l-0.25,1.92
			c-0.01,0.13-0.05,0.21-0.11,0.25c-0.06,0.04-0.17,0.06-0.33,0.06c-0.22,0-0.32-0.07-0.31-0.2l0.01-0.11l0.2-1.65
			c0.03-0.25,0.06-0.51,0.1-0.76c0.06-0.44,0.09-0.77,0.09-0.99c0-0.41-0.09-0.62-0.29-0.62c-0.07,0-0.16,0.05-0.26,0.15
			c-0.1,0.1-0.17,0.22-0.22,0.35c-0.05,0.16-0.11,0.23-0.18,0.23c-0.08,0-0.13-0.06-0.13-0.18c0-0.29,0.13-0.59,0.38-0.92
			c0.25-0.33,0.49-0.49,0.72-0.49c0.15,0,0.28,0.09,0.37,0.27c0.1,0.18,0.14,0.42,0.14,0.71V41.9z"/>
		<path class="st0" d="M58.44,41.05c0.23,0.43,0.34,0.83,0.34,1.18c0,0.56-0.17,1.05-0.5,1.45c-0.33,0.4-0.74,0.6-1.21,0.6
			c-0.17,0-0.36-0.03-0.56-0.1c-0.05-0.02-0.1-0.03-0.13-0.03c-0.18,0-0.27,0.12-0.27,0.37c0,0.31,0.26,0.55,0.79,0.71l1,0.32
			c0.8,0.25,1.2,0.66,1.2,1.23c0,0.37-0.18,0.67-0.53,0.89c-0.35,0.22-0.81,0.34-1.39,0.34c-0.71,0-1.29-0.13-1.73-0.4
			c-0.44-0.27-0.66-0.62-0.66-1.07c0-0.32,0.1-0.58,0.3-0.78c0.2-0.2,0.48-0.33,0.83-0.38c-0.14-0.18-0.2-0.39-0.2-0.63
			c0-0.25,0.11-0.47,0.32-0.66c0.04-0.03,0.06-0.05,0.06-0.08l-0.04-0.09c-0.31-0.37-0.47-0.82-0.47-1.36c0-0.53,0.17-0.99,0.5-1.38
			c0.34-0.39,0.73-0.59,1.18-0.59c0.14,0,0.36,0.04,0.65,0.11c0.26,0.07,0.45,0.1,0.58,0.1c0.2,0,0.37-0.03,0.53-0.09l0.29-0.11
			c0.06-0.03,0.12-0.04,0.18-0.04c0.06,0,0.11,0.03,0.16,0.08c0.05,0.06,0.08,0.12,0.08,0.19c0,0.11-0.04,0.2-0.14,0.28
			c-0.1,0.08-0.21,0.12-0.35,0.12C59.05,41.22,58.78,41.17,58.44,41.05z M56.05,45.55c-0.22,0.05-0.4,0.15-0.52,0.3
			c-0.13,0.15-0.19,0.34-0.19,0.56c0,0.38,0.16,0.7,0.47,0.95c0.32,0.25,0.72,0.37,1.21,0.37c0.42,0,0.76-0.07,1.01-0.2
			c0.25-0.13,0.38-0.31,0.38-0.53c0-0.32-0.29-0.58-0.88-0.79l-0.82-0.31C56.45,45.81,56.23,45.69,56.05,45.55z M57.26,40.84
			c-0.29,0-0.52,0.17-0.71,0.52c-0.18,0.35-0.28,0.79-0.28,1.32c0,0.4,0.07,0.73,0.22,0.96c0.15,0.24,0.34,0.36,0.59,0.36
			c0.3,0,0.54-0.17,0.74-0.51c0.19-0.34,0.29-0.78,0.29-1.3c0-0.4-0.08-0.72-0.24-0.97C57.72,40.97,57.51,40.84,57.26,40.84z"/>
		<path class="st0" d="M64.1,44.63l0.75-6.16c0.02-0.16,0.03-0.29,0.03-0.38c0-0.38-0.2-0.6-0.6-0.68
			c-0.24-0.05-0.36-0.11-0.36-0.18c0-0.09,0.07-0.13,0.2-0.13c0.1,0,0.26,0.02,0.5,0.06c0.18,0.03,0.34,0.04,0.49,0.04
			c0.16,0,0.48-0.02,0.96-0.05c0.47-0.03,0.92-0.04,1.36-0.04c1.31,0,2.3,0.33,2.99,1c0.65,0.63,0.98,1.44,0.98,2.42
			c0,0.9-0.21,1.75-0.63,2.56c-0.42,0.81-0.99,1.47-1.71,1.97c-0.42,0.29-0.88,0.49-1.36,0.62c-0.49,0.12-1.09,0.19-1.81,0.19
			c-0.36,0-0.71-0.02-1.06-0.05c-0.27-0.03-0.45-0.04-0.54-0.04c-0.11,0-0.25,0.01-0.4,0.04c-0.19,0.03-0.32,0.05-0.39,0.05
			c-0.16,0-0.23-0.04-0.23-0.13c0-0.07,0.07-0.12,0.22-0.16c0.33-0.08,0.52-0.28,0.56-0.6L64.1,44.63z M65.78,38.33l-0.77,6.34
			c-0.02,0.16-0.03,0.28-0.03,0.35c0,0.19,0.06,0.31,0.17,0.37c0.11,0.06,0.35,0.09,0.71,0.09c0.68,0,1.23-0.06,1.65-0.18
			c0.42-0.12,0.81-0.34,1.18-0.65c0.49-0.41,0.9-1.01,1.22-1.79c0.32-0.78,0.48-1.57,0.48-2.35c0-1.05-0.39-1.87-1.17-2.44
			c-0.53-0.39-1.26-0.58-2.19-0.58c-0.51,0-0.84,0.05-0.98,0.14C65.92,37.71,65.83,37.94,65.78,38.33z"/>
		<path class="st0" d="M72.73,43.2L73,41.63c0.02-0.11,0.03-0.22,0.03-0.31c0-0.17-0.12-0.25-0.37-0.25h-0.34
			c-0.19,0-0.28-0.04-0.27-0.13c0-0.1,0.09-0.15,0.27-0.15c0.39,0,0.76-0.04,1.13-0.11c0.14-0.03,0.25-0.04,0.32-0.04
			c0.09,0,0.13,0.05,0.13,0.15l-0.01,0.07l-0.35,1.75c-0.18,0.87-0.26,1.53-0.26,1.98c0,0.25,0.07,0.38,0.2,0.39
			c0.19,0.01,0.38-0.16,0.56-0.53c0.05-0.1,0.1-0.15,0.15-0.15c0.07,0,0.1,0.04,0.1,0.13c-0.02,0.27-0.18,0.58-0.49,0.9
			c-0.31,0.33-0.58,0.49-0.82,0.49c-0.13,0-0.23-0.09-0.31-0.28c-0.08-0.19-0.12-0.43-0.12-0.73C72.54,44.5,72.6,43.96,72.73,43.2z
			 M73.82,38.05c0.04,0,0.07,0.04,0.11,0.11c0.07,0.13,0.11,0.21,0.13,0.23l0.14,0.21c0.04,0.05,0.06,0.1,0.06,0.13
			c0,0.04-0.03,0.09-0.1,0.15c-0.09,0.09-0.21,0.22-0.34,0.39c-0.05,0.06-0.1,0.1-0.14,0.1c-0.05,0-0.1-0.04-0.13-0.12
			c-0.09-0.19-0.17-0.32-0.24-0.41c-0.04-0.05-0.06-0.1-0.06-0.13c0-0.05,0.02-0.09,0.06-0.14l0.18-0.18
			c0.02-0.02,0.08-0.09,0.17-0.21C73.73,38.08,73.78,38.04,73.82,38.05z"/>
		<path class="st0" d="M78.41,41.05c0.23,0.43,0.34,0.83,0.34,1.18c0,0.56-0.17,1.05-0.5,1.45c-0.33,0.4-0.74,0.6-1.21,0.6
			c-0.17,0-0.36-0.03-0.56-0.1c-0.05-0.02-0.1-0.03-0.13-0.03c-0.18,0-0.27,0.12-0.27,0.37c0,0.31,0.26,0.55,0.79,0.71l1,0.32
			c0.8,0.25,1.2,0.66,1.2,1.23c0,0.37-0.18,0.67-0.53,0.89c-0.35,0.22-0.81,0.34-1.39,0.34c-0.71,0-1.29-0.13-1.73-0.4
			s-0.66-0.62-0.66-1.07c0-0.32,0.1-0.58,0.3-0.78c0.2-0.2,0.48-0.33,0.83-0.38c-0.14-0.18-0.2-0.39-0.2-0.63
			c0-0.25,0.11-0.47,0.32-0.66c0.04-0.03,0.06-0.05,0.06-0.08l-0.04-0.09c-0.31-0.37-0.47-0.82-0.47-1.36c0-0.53,0.17-0.99,0.5-1.38
			c0.34-0.39,0.73-0.59,1.18-0.59c0.14,0,0.36,0.04,0.65,0.11c0.26,0.07,0.45,0.1,0.58,0.1c0.2,0,0.37-0.03,0.53-0.09l0.29-0.11
			c0.06-0.03,0.12-0.04,0.18-0.04c0.06,0,0.11,0.03,0.16,0.08c0.05,0.06,0.08,0.12,0.08,0.19c0,0.11-0.04,0.2-0.14,0.28
			c-0.1,0.08-0.21,0.12-0.35,0.12C79.03,41.22,78.76,41.17,78.41,41.05z M76.03,45.55c-0.22,0.05-0.4,0.15-0.52,0.3
			c-0.13,0.15-0.19,0.34-0.19,0.56c0,0.38,0.16,0.7,0.47,0.95c0.32,0.25,0.72,0.37,1.21,0.37c0.42,0,0.76-0.07,1.01-0.2
			c0.25-0.13,0.38-0.31,0.38-0.53c0-0.32-0.29-0.58-0.88-0.79l-0.82-0.31C76.43,45.81,76.21,45.69,76.03,45.55z M77.23,40.84
			c-0.29,0-0.52,0.17-0.71,0.52c-0.18,0.35-0.28,0.79-0.28,1.32c0,0.4,0.07,0.73,0.22,0.96c0.15,0.24,0.34,0.36,0.59,0.36
			c0.3,0,0.54-0.17,0.74-0.51c0.19-0.34,0.29-0.78,0.29-1.3c0-0.4-0.08-0.72-0.24-0.97C77.69,40.97,77.48,40.84,77.23,40.84z"/>
		<path class="st0" d="M80.51,43.2l0.27-1.57c0.02-0.11,0.03-0.22,0.03-0.31c0-0.17-0.12-0.25-0.37-0.25h-0.34
			c-0.19,0-0.28-0.04-0.27-0.13c0-0.1,0.09-0.15,0.27-0.15c0.39,0,0.76-0.04,1.13-0.11c0.14-0.03,0.25-0.04,0.32-0.04
			c0.09,0,0.13,0.05,0.13,0.15l-0.01,0.07l-0.35,1.75c-0.18,0.87-0.26,1.53-0.26,1.98c0,0.25,0.07,0.38,0.2,0.39
			c0.19,0.01,0.38-0.16,0.56-0.53c0.05-0.1,0.1-0.15,0.15-0.15c0.07,0,0.1,0.04,0.1,0.13c-0.02,0.27-0.18,0.58-0.49,0.9
			c-0.31,0.33-0.58,0.49-0.82,0.49c-0.13,0-0.23-0.09-0.31-0.28c-0.08-0.19-0.12-0.43-0.12-0.73C80.31,44.5,80.37,43.96,80.51,43.2z
			 M81.59,38.05c0.04,0,0.07,0.04,0.11,0.11c0.07,0.13,0.11,0.21,0.13,0.23l0.14,0.21c0.04,0.05,0.06,0.1,0.06,0.13
			c0,0.04-0.03,0.09-0.1,0.15c-0.09,0.09-0.21,0.22-0.34,0.39c-0.05,0.06-0.1,0.1-0.14,0.1c-0.05,0-0.1-0.04-0.13-0.12
			c-0.09-0.19-0.17-0.32-0.24-0.41c-0.04-0.05-0.06-0.1-0.06-0.13c0-0.05,0.02-0.09,0.06-0.14l0.18-0.18
			c0.02-0.02,0.08-0.09,0.17-0.21C81.5,38.08,81.55,38.04,81.59,38.05z"/>
		<path class="st0" d="M84.64,41.45l-0.33,2.56c-0.01,0.12-0.02,0.25-0.02,0.38c0,0.2,0.05,0.37,0.15,0.51
			c0.1,0.14,0.23,0.2,0.38,0.2c0.27,0,0.55-0.16,0.85-0.47c0.08-0.08,0.14-0.13,0.2-0.13c0.07,0,0.1,0.03,0.1,0.1
			c0,0.23-0.2,0.5-0.59,0.79c-0.39,0.3-0.74,0.45-1.05,0.45c-0.24,0-0.44-0.11-0.59-0.34c-0.15-0.22-0.22-0.52-0.22-0.87
			c0-0.16,0.01-0.37,0.04-0.63l0.3-2.42c0.01-0.1,0.03-0.18,0.04-0.23c0-0.03,0.01-0.06,0.01-0.08c0-0.09-0.08-0.14-0.22-0.14h-0.36
			c-0.1,0-0.15-0.04-0.15-0.11c0-0.09,0.09-0.18,0.27-0.27c0.46-0.25,0.83-0.59,1.1-1.03c0.07-0.11,0.14-0.17,0.21-0.17
			c0.09,0,0.14,0.04,0.14,0.12c0,0.04-0.01,0.1-0.04,0.18c-0.01,0.03-0.03,0.11-0.06,0.24l-0.04,0.21l-0.04,0.17
			c-0.01,0.04-0.01,0.07-0.01,0.09c0,0.1,0.08,0.15,0.25,0.15h0.06l0.87-0.03c0.14,0,0.22,0.06,0.22,0.17
			c0,0.18-0.11,0.28-0.32,0.28l-0.75-0.03h-0.09c-0.12,0-0.2,0.02-0.24,0.06C84.69,41.2,84.66,41.3,84.64,41.45z"/>
		<path class="st0" d="M89.96,44.45c-0.74,0.96-1.49,1.44-2.27,1.44c-0.31,0-0.56-0.12-0.76-0.36c-0.2-0.24-0.3-0.54-0.3-0.92
			c0-0.5,0.12-1.03,0.36-1.6c0.24-0.56,0.54-1.05,0.92-1.46c0.56-0.61,1.15-0.91,1.77-0.91c0.22,0,0.45,0.04,0.71,0.12
			c0.09,0.03,0.17,0.05,0.23,0.05c0.12,0,0.28-0.15,0.46-0.44c0.09-0.14,0.16-0.21,0.21-0.21c0.05,0,0.08,0.04,0.08,0.12
			c0,0.03-0.01,0.07-0.02,0.11c-0.01,0.03-0.04,0.15-0.08,0.36l-0.15,0.69c-0.09,0.4-0.18,0.91-0.26,1.53
			c-0.08,0.62-0.13,1.05-0.13,1.28c0,0.53,0.08,0.79,0.25,0.79c0.08,0,0.19-0.07,0.33-0.21c0.13-0.14,0.24-0.29,0.31-0.45
			c0.06-0.14,0.12-0.21,0.19-0.21c0.07,0,0.11,0.04,0.11,0.13c0,0.27-0.17,0.59-0.5,0.97c-0.34,0.38-0.62,0.56-0.86,0.56
			c-0.16,0-0.29-0.09-0.37-0.28C90.11,45.36,90.03,44.99,89.96,44.45z M89.69,40.92c-0.45,0-0.87,0.25-1.28,0.76
			c-0.27,0.33-0.49,0.76-0.68,1.27c-0.19,0.51-0.28,0.96-0.28,1.36c0,0.63,0.28,0.95,0.85,0.95c0.36,0,0.72-0.19,1.09-0.58
			c0.37-0.38,0.58-0.79,0.64-1.22c0.03-0.24,0.06-0.44,0.1-0.6l0.12-0.57c0.07-0.32,0.12-0.53,0.15-0.64
			c0.03-0.12,0.05-0.22,0.05-0.32c0-0.11-0.08-0.2-0.23-0.29C90.05,40.96,89.88,40.92,89.69,40.92z"/>
		<path class="st0" d="M93.04,44.23l0.79-6.46c0.02-0.18,0.03-0.29,0.04-0.34c0.01-0.15-0.11-0.22-0.36-0.22h-0.32
			c-0.17,0-0.26-0.04-0.25-0.12c0-0.1,0.09-0.15,0.25-0.15c0.49-0.03,0.84-0.06,1.06-0.11c0.12-0.03,0.22-0.04,0.29-0.04
			c0.08,0,0.12,0.05,0.12,0.15l-0.01,0.08l-0.89,7.36c-0.02,0.16-0.03,0.27-0.03,0.34c0,0.24,0.08,0.36,0.24,0.36
			c0.14,0,0.29-0.07,0.45-0.22c0.16-0.15,0.3-0.34,0.43-0.57c0.05-0.09,0.1-0.13,0.15-0.13c0.09,0,0.13,0.04,0.13,0.13
			c0,0.06-0.05,0.19-0.16,0.38c-0.1,0.19-0.21,0.35-0.31,0.48c-0.16,0.2-0.35,0.37-0.56,0.5c-0.21,0.14-0.4,0.21-0.55,0.21
			c-0.37,0-0.55-0.34-0.55-1.03C93,44.64,93.01,44.44,93.04,44.23z"/>
		<path class="st0" d="M99.84,44.63l0.75-6.16c0.02-0.16,0.03-0.28,0.03-0.38c0-0.38-0.2-0.6-0.6-0.68
			c-0.24-0.05-0.36-0.11-0.36-0.18c0-0.09,0.07-0.13,0.2-0.13c0.14,0,0.3,0.01,0.51,0.03c0.41,0.04,1.2,0.06,2.37,0.06
			c1.1,0,1.91-0.02,2.42-0.06c0.24-0.02,0.41-0.03,0.51-0.03c0.12,0,0.18,0.05,0.18,0.16l-0.01,0.62l0.03,0.96
			c0,0.14-0.05,0.2-0.15,0.2c-0.1,0-0.16-0.09-0.17-0.26c-0.03-0.47-0.15-0.77-0.38-0.9c-0.23-0.14-0.73-0.2-1.5-0.2h-0.51
			L102,37.64c-0.18,0-0.29,0.02-0.34,0.07c-0.05,0.05-0.09,0.16-0.11,0.35l-0.33,2.75c-0.01,0.06-0.01,0.1-0.01,0.13
			c0,0.09,0.09,0.14,0.27,0.14h1.76c0.57,0,0.92-0.26,1.05-0.78c0.03-0.1,0.08-0.15,0.14-0.16c0.09,0,0.13,0.05,0.13,0.16
			c0,0.14-0.03,0.35-0.08,0.61c-0.06,0.32-0.1,0.69-0.12,1.13c-0.02,0.31-0.04,0.51-0.06,0.6c-0.02,0.09-0.07,0.14-0.13,0.14
			c-0.08,0-0.13-0.05-0.13-0.16l-0.01-0.29c0-0.46-0.33-0.7-0.99-0.7h-1.52c-0.19,0-0.31,0.01-0.35,0.04
			c-0.04,0.03-0.07,0.11-0.09,0.25l-0.33,2.72c0,0.05-0.01,0.1-0.01,0.15c0,0.21,0.06,0.34,0.19,0.41c0.13,0.06,0.4,0.1,0.83,0.1
			c1.86,0,3.02-0.34,3.46-1.02c0.11-0.16,0.19-0.23,0.26-0.23c0.08,0,0.12,0.05,0.12,0.14c0,0.13-0.07,0.32-0.2,0.57
			c-0.13,0.25-0.28,0.46-0.45,0.66c-0.17,0.19-0.34,0.31-0.5,0.37c-0.16,0.06-0.43,0.09-0.8,0.09c-0.18,0-0.55-0.02-1.1-0.05
			c-0.41-0.03-0.81-0.04-1.2-0.04c-0.44,0-0.85,0.02-1.22,0.04c-0.37,0.03-0.66,0.04-0.88,0.04c-0.16,0-0.23-0.04-0.23-0.13
			c0-0.07,0.08-0.12,0.23-0.16c0.23-0.06,0.37-0.14,0.44-0.24S99.79,44.99,99.84,44.63z"/>
		<path class="st0" d="M109.6,41.67l-0.37-0.39c-0.2-0.21-0.41-0.31-0.64-0.31c-0.45,0-0.82,0.24-1.12,0.72
			c-0.3,0.48-0.45,1.07-0.45,1.78c0,0.57,0.12,1.01,0.37,1.32c0.25,0.31,0.6,0.47,1.05,0.47c0.45,0,0.84-0.15,1.17-0.44l0.24-0.2
			c0.03-0.03,0.07-0.05,0.11-0.05c0.05,0,0.08,0.02,0.08,0.08c0,0.1-0.09,0.25-0.28,0.46c-0.48,0.53-1.09,0.79-1.83,0.79
			c-0.53,0-0.93-0.17-1.23-0.51c-0.29-0.34-0.44-0.82-0.44-1.43c0-0.87,0.27-1.65,0.81-2.33c0.54-0.68,1.16-1.02,1.85-1.02
			c0.34,0,0.64,0.08,0.9,0.23c0.26,0.15,0.39,0.33,0.39,0.52c0,0.12-0.04,0.22-0.11,0.31c-0.08,0.09-0.17,0.13-0.27,0.13
			C109.76,41.79,109.68,41.75,109.6,41.67z"/>
		<path class="st0" d="M113.33,40.6c0.56,0,1.01,0.19,1.35,0.56c0.33,0.37,0.5,0.88,0.5,1.51c0,0.89-0.25,1.65-0.75,2.28
			c-0.5,0.63-1.1,0.94-1.81,0.94c-0.54,0-0.97-0.2-1.31-0.6c-0.34-0.4-0.5-0.92-0.5-1.55c0-0.47,0.1-0.94,0.29-1.42
			c0.2-0.48,0.45-0.86,0.75-1.14C112.26,40.79,112.76,40.6,113.33,40.6z M113.34,40.91c-0.48,0-0.89,0.27-1.21,0.82
			c-0.32,0.55-0.49,1.22-0.49,2.03c0,1.18,0.36,1.77,1.08,1.77c0.44,0,0.81-0.29,1.13-0.87c0.32-0.58,0.47-1.28,0.47-2.09
			C114.33,41.46,114,40.91,113.34,40.91z"/>
		<path class="st0" d="M117.59,41.9c0.29-0.39,0.61-0.7,0.97-0.92c0.36-0.22,0.71-0.34,1.04-0.34c0.26,0,0.48,0.14,0.66,0.41
			c0.18,0.27,0.26,0.61,0.26,1.02c0,0.24-0.02,0.54-0.05,0.91l-0.14,1.65c0,0.04-0.01,0.08-0.01,0.12c0,0.22,0.06,0.33,0.18,0.33
			c0.21,0,0.41-0.14,0.61-0.43c0.09-0.13,0.16-0.19,0.23-0.19c0.08,0,0.11,0.04,0.11,0.13c-0.01,0.23-0.19,0.49-0.53,0.8
			c-0.34,0.31-0.64,0.46-0.88,0.46c-0.3,0-0.45-0.28-0.45-0.84c0-0.13,0.01-0.3,0.03-0.52l0.16-1.94c0.01-0.08,0.01-0.18,0.01-0.29
			c0-0.33-0.06-0.59-0.19-0.79c-0.12-0.2-0.29-0.29-0.5-0.29c-0.36,0-0.67,0.22-0.93,0.66c-0.26,0.44-0.44,1.03-0.53,1.77
			l-0.24,1.92c-0.01,0.13-0.05,0.21-0.11,0.25c-0.06,0.04-0.17,0.06-0.33,0.06c-0.22,0-0.32-0.07-0.31-0.2l0.01-0.11l0.2-1.65
			c0.03-0.25,0.06-0.51,0.1-0.76c0.06-0.44,0.09-0.77,0.09-0.99c0-0.41-0.1-0.62-0.29-0.62c-0.07,0-0.16,0.05-0.26,0.15
			c-0.1,0.1-0.17,0.22-0.22,0.35c-0.05,0.16-0.11,0.23-0.18,0.23c-0.09,0-0.13-0.06-0.13-0.18c0-0.29,0.13-0.59,0.38-0.92
			c0.25-0.33,0.49-0.49,0.72-0.49c0.15,0,0.28,0.09,0.37,0.27c0.1,0.18,0.14,0.42,0.14,0.71V41.9z"/>
		<path class="st0" d="M124.61,40.6c0.56,0,1.01,0.19,1.35,0.56c0.33,0.37,0.5,0.88,0.5,1.51c0,0.89-0.25,1.65-0.75,2.28
			c-0.5,0.63-1.1,0.94-1.81,0.94c-0.54,0-0.97-0.2-1.31-0.6c-0.34-0.4-0.5-0.92-0.5-1.55c0-0.47,0.1-0.94,0.29-1.42
			c0.2-0.48,0.45-0.86,0.75-1.14C123.55,40.79,124.04,40.6,124.61,40.6z M124.63,40.91c-0.48,0-0.89,0.27-1.21,0.82
			c-0.32,0.55-0.49,1.22-0.49,2.03c0,1.18,0.36,1.77,1.08,1.77c0.44,0,0.81-0.29,1.13-0.87c0.32-0.58,0.47-1.28,0.47-2.09
			C125.62,41.46,125.29,40.91,124.63,40.91z"/>
		<path class="st0" d="M128.85,41.94c0.29-0.41,0.62-0.73,0.97-0.96c0.36-0.23,0.71-0.34,1.07-0.34c0.53,0,0.79,0.35,0.79,1.06v0.24
			c0.27-0.4,0.57-0.72,0.9-0.95c0.33-0.23,0.64-0.35,0.93-0.35s0.53,0.13,0.71,0.38c0.18,0.25,0.27,0.59,0.27,1.01
			c0,0.16-0.01,0.31-0.02,0.46l-0.15,2.03l-0.02,0.27l0.03,0.12c0.04,0.1,0.11,0.15,0.21,0.15c0.21,0,0.42-0.16,0.63-0.49
			c0.05-0.07,0.1-0.11,0.16-0.11c0.08,0,0.12,0.05,0.12,0.15c0,0.15-0.13,0.37-0.38,0.66c-0.34,0.38-0.67,0.58-1.01,0.58
			c-0.33,0-0.49-0.3-0.49-0.89c0-0.1,0.01-0.24,0.02-0.43l0.15-2.03c0.01-0.12,0.01-0.23,0.01-0.32c0-0.66-0.22-0.99-0.67-0.99
			c-0.31,0-0.59,0.22-0.84,0.66c-0.25,0.44-0.41,1.02-0.5,1.74l-0.24,1.94c-0.02,0.13-0.05,0.21-0.11,0.25
			c-0.06,0.04-0.17,0.06-0.33,0.06c-0.21,0-0.31-0.07-0.31-0.2l0.01-0.11l0.34-2.82c0.02-0.16,0.03-0.36,0.03-0.58
			c0-0.29-0.07-0.52-0.21-0.7c-0.14-0.17-0.32-0.26-0.56-0.26c-0.33,0-0.63,0.21-0.9,0.64c-0.27,0.43-0.45,0.95-0.52,1.57
			l-0.26,2.15c-0.02,0.13-0.05,0.21-0.11,0.25c-0.06,0.04-0.17,0.06-0.33,0.06c-0.21,0-0.31-0.07-0.31-0.2c0-0.02,0-0.06,0.01-0.11
			l0.37-3.04c0.02-0.13,0.03-0.24,0.03-0.32c0-0.41-0.09-0.63-0.27-0.64c-0.19-0.01-0.36,0.18-0.53,0.57
			c-0.04,0.1-0.08,0.15-0.12,0.14c-0.07,0-0.1-0.07-0.1-0.19c0-0.28,0.12-0.58,0.36-0.9c0.24-0.32,0.46-0.49,0.67-0.49
			C128.68,40.65,128.85,41.08,128.85,41.94z"/>
		<path class="st0" d="M136.75,43.2l0.27-1.57c0.02-0.11,0.03-0.22,0.03-0.31c0-0.17-0.12-0.25-0.37-0.25h-0.34
			c-0.19,0-0.28-0.04-0.27-0.13c0-0.1,0.1-0.15,0.27-0.15c0.39,0,0.76-0.04,1.13-0.11c0.14-0.03,0.25-0.04,0.32-0.04
			c0.09,0,0.13,0.05,0.13,0.15l-0.01,0.07l-0.35,1.75c-0.18,0.87-0.26,1.53-0.26,1.98c0,0.25,0.07,0.38,0.2,0.39
			c0.19,0.01,0.38-0.16,0.56-0.53c0.05-0.1,0.1-0.15,0.15-0.15c0.07,0,0.1,0.04,0.1,0.13c-0.02,0.27-0.18,0.58-0.49,0.9
			c-0.31,0.33-0.58,0.49-0.82,0.49c-0.13,0-0.23-0.09-0.31-0.28c-0.08-0.19-0.12-0.43-0.12-0.73
			C136.55,44.5,136.61,43.96,136.75,43.2z M137.83,38.05c0.04,0,0.07,0.04,0.11,0.11c0.07,0.13,0.11,0.21,0.13,0.23l0.14,0.21
			c0.04,0.05,0.06,0.1,0.06,0.13c0,0.04-0.03,0.09-0.1,0.15c-0.09,0.09-0.21,0.22-0.34,0.39c-0.05,0.06-0.1,0.1-0.14,0.1
			c-0.05,0-0.1-0.04-0.13-0.12c-0.09-0.19-0.17-0.32-0.24-0.41c-0.04-0.05-0.06-0.1-0.06-0.13c0-0.05,0.02-0.09,0.06-0.14l0.18-0.18
			c0.02-0.02,0.08-0.09,0.17-0.21C137.74,38.08,137.79,38.04,137.83,38.05z"/>
		<path class="st0" d="M142.53,41.67l-0.37-0.39c-0.2-0.21-0.41-0.31-0.64-0.31c-0.45,0-0.82,0.24-1.12,0.72
			c-0.3,0.48-0.45,1.07-0.45,1.78c0,0.57,0.12,1.01,0.37,1.32c0.25,0.31,0.6,0.47,1.05,0.47c0.45,0,0.84-0.15,1.17-0.44l0.24-0.2
			c0.03-0.03,0.07-0.05,0.11-0.05c0.05,0,0.08,0.02,0.08,0.08c0,0.1-0.09,0.25-0.28,0.46c-0.48,0.53-1.09,0.79-1.83,0.79
			c-0.53,0-0.93-0.17-1.23-0.51c-0.29-0.34-0.44-0.82-0.44-1.43c0-0.87,0.27-1.65,0.81-2.33c0.54-0.68,1.16-1.02,1.85-1.02
			c0.34,0,0.64,0.08,0.9,0.23c0.26,0.15,0.39,0.33,0.39,0.52c0,0.12-0.04,0.22-0.11,0.31c-0.07,0.09-0.17,0.13-0.27,0.13
			C142.68,41.79,142.61,41.75,142.53,41.67z"/>
		<path class="st0" d="M151.38,37.39c-1.1,0-1.91,0.4-2.44,1.19c-0.2,0.31-0.37,0.73-0.51,1.25c-0.14,0.52-0.21,1.02-0.21,1.48
			c0,1.17,0.29,2.16,0.88,2.97c0.62,0.85,1.49,1.28,2.61,1.28c1.04,0,1.68-0.42,1.9-1.25c0.14-0.49,0.2-1.08,0.2-1.76
			c0-0.29-0.04-0.48-0.12-0.59c-0.08-0.11-0.25-0.17-0.5-0.2l-0.24-0.03c-0.14-0.02-0.2-0.06-0.2-0.14c0-0.1,0.09-0.16,0.26-0.16
			l1.24,0.01l0.97-0.07c0.11,0,0.17,0.04,0.17,0.12c0,0.08-0.09,0.15-0.27,0.19c-0.14,0.03-0.23,0.09-0.27,0.17
			c-0.05,0.08-0.09,0.24-0.11,0.48l-0.13,1.17c-0.05,0.39-0.07,0.74-0.07,1.04c0,0.15,0.01,0.28,0.03,0.38
			c0.01,0.06,0.02,0.11,0.02,0.13c0,0.08-0.05,0.13-0.16,0.15c-0.22,0.05-0.46,0.12-0.72,0.23c-0.82,0.33-1.55,0.5-2.18,0.5
			c-0.91,0-1.72-0.22-2.43-0.65c-1.2-0.72-1.8-1.95-1.8-3.68c0-1.35,0.41-2.45,1.22-3.31c0.81-0.86,1.86-1.29,3.13-1.29
			c0.39,0,0.84,0.07,1.34,0.21c0.5,0.14,0.92,0.32,1.27,0.52c0.09,0.06,0.16,0.08,0.2,0.08c0.06,0,0.11-0.03,0.17-0.08l0.08-0.09
			c0.02-0.02,0.06-0.03,0.1-0.03c0.09,0,0.14,0.07,0.14,0.2v0.67l0.07,1.01c0.02,0.22-0.03,0.32-0.14,0.32
			c-0.07,0-0.13-0.07-0.16-0.2c-0.16-0.65-0.56-1.19-1.19-1.61C152.91,37.6,152.19,37.39,151.38,37.39z"/>
		<path class="st0" d="M157.78,41.94c0.46-0.87,0.96-1.3,1.47-1.3c0.3,0,0.44,0.1,0.44,0.3c0,0.05-0.01,0.12-0.04,0.2
			c-0.03,0.09-0.05,0.15-0.05,0.18l-0.08,0.3c-0.03,0.14-0.09,0.21-0.19,0.21c-0.05,0-0.1-0.04-0.14-0.14
			c-0.1-0.24-0.25-0.36-0.45-0.36c-0.2,0-0.37,0.22-0.51,0.65c-0.14,0.43-0.27,1.12-0.38,2.06l-0.18,1.49l-0.01,0.07
			c-0.02,0.17-0.15,0.25-0.4,0.25c-0.22,0-0.34-0.07-0.34-0.2c0-0.03,0-0.07,0.01-0.11l0.31-2.48c0.02-0.14,0.03-0.31,0.03-0.51
			c0-0.63-0.14-0.94-0.43-0.94c-0.13,0-0.24,0.07-0.35,0.21c-0.11,0.14-0.17,0.31-0.2,0.52c-0.02,0.16-0.07,0.24-0.15,0.24
			c-0.1,0-0.15-0.1-0.15-0.3c0-0.43,0.11-0.79,0.32-1.07c0.1-0.13,0.23-0.25,0.37-0.36s0.27-0.16,0.35-0.16
			C157.32,40.68,157.56,41.1,157.78,41.94z"/>
		<path class="st0" d="M162.44,40.6c0.56,0,1.01,0.19,1.35,0.56c0.33,0.37,0.5,0.88,0.5,1.51c0,0.89-0.25,1.65-0.75,2.28
			c-0.5,0.63-1.1,0.94-1.81,0.94c-0.54,0-0.97-0.2-1.31-0.6c-0.34-0.4-0.5-0.92-0.5-1.55c0-0.47,0.1-0.94,0.29-1.42
			c0.2-0.48,0.45-0.86,0.75-1.14C161.38,40.79,161.87,40.6,162.44,40.6z M162.46,40.91c-0.48,0-0.89,0.27-1.21,0.82
			s-0.49,1.22-0.49,2.03c0,1.18,0.36,1.77,1.08,1.77c0.44,0,0.81-0.29,1.13-0.87c0.32-0.58,0.47-1.28,0.47-2.09
			C163.45,41.46,163.12,40.91,162.46,40.91z"/>
		<path class="st0" d="M168.87,43.6c-0.36,0.68-0.63,1.15-0.84,1.41c-0.47,0.58-0.89,0.88-1.26,0.88c-0.19,0-0.35-0.15-0.49-0.46
			c-0.14-0.3-0.21-0.67-0.21-1.1V44.2l-0.01-0.13c0-0.08-0.04-0.12-0.13-0.12c-0.26,0-0.47-0.11-0.64-0.33
			c-0.17-0.22-0.25-0.5-0.25-0.84c0-0.49,0.15-0.96,0.46-1.43c0.3-0.47,0.61-0.7,0.93-0.7c0.35,0,0.52,0.4,0.52,1.21
			c0,0.14-0.01,0.31-0.03,0.5l-0.12,1.11c-0.02,0.16-0.02,0.31-0.02,0.46c0,0.35,0.04,0.64,0.12,0.87c0.08,0.23,0.18,0.35,0.31,0.35
			c0.15,0,0.34-0.12,0.56-0.35s0.42-0.51,0.59-0.84c0.35-0.69,0.59-1.47,0.72-2.36l0.09-0.58c0.03-0.2,0.1-0.31,0.22-0.32
			c0.31-0.02,0.46,0.05,0.46,0.21c0,0.04,0,0.1-0.01,0.17l-0.05,0.35c-0.14,0.96-0.22,1.74-0.22,2.33c0,0.42,0.05,0.76,0.15,1.03
			c0.1,0.27,0.23,0.41,0.39,0.41c0.14,0,0.33-0.11,0.56-0.33c0.23-0.22,0.43-0.48,0.6-0.78c0.42-0.73,0.63-1.4,0.63-2.01
			c0-0.26-0.05-0.53-0.16-0.81c-0.04-0.1-0.06-0.17-0.06-0.21c0-0.1,0.04-0.19,0.13-0.26s0.19-0.11,0.3-0.11
			c0.19,0,0.28,0.19,0.28,0.58c0,0.7-0.17,1.44-0.5,2.23c-0.34,0.79-0.75,1.39-1.23,1.81c-0.45,0.4-0.8,0.6-1.03,0.6
			s-0.42-0.2-0.55-0.61C168.94,44.86,168.87,44.31,168.87,43.6z M166.04,41.62c-0.12-0.02-0.26,0.13-0.41,0.43
			c-0.15,0.3-0.22,0.58-0.22,0.84c0,0.2,0.04,0.36,0.12,0.49c0.08,0.13,0.18,0.19,0.31,0.19c0.11,0,0.18-0.04,0.22-0.13
			c0.04-0.09,0.07-0.29,0.09-0.59l0.02-0.31l0.03-0.31c0-0.07,0.01-0.13,0.01-0.2C166.21,41.77,166.15,41.64,166.04,41.62z"/>
		<path class="st0" d="M174.66,41.45l-0.33,2.56c-0.01,0.12-0.02,0.25-0.02,0.38c0,0.2,0.05,0.37,0.15,0.51
			c0.1,0.14,0.23,0.2,0.38,0.2c0.27,0,0.55-0.16,0.85-0.47c0.08-0.08,0.14-0.13,0.2-0.13c0.07,0,0.1,0.03,0.1,0.1
			c0,0.23-0.2,0.5-0.59,0.79c-0.39,0.3-0.74,0.45-1.05,0.45c-0.24,0-0.44-0.11-0.58-0.34c-0.15-0.22-0.22-0.52-0.22-0.87
			c0-0.16,0.02-0.37,0.04-0.63l0.3-2.42c0.01-0.1,0.03-0.18,0.04-0.23c0-0.03,0.01-0.06,0.01-0.08c0-0.09-0.08-0.14-0.22-0.14h-0.36
			c-0.1,0-0.15-0.04-0.15-0.11c0-0.09,0.09-0.18,0.27-0.27c0.46-0.25,0.83-0.59,1.1-1.03c0.07-0.11,0.14-0.17,0.21-0.17
			c0.09,0,0.14,0.04,0.14,0.12c0,0.04-0.01,0.1-0.04,0.18c-0.01,0.03-0.03,0.11-0.06,0.24l-0.04,0.21l-0.04,0.17
			c-0.01,0.04-0.01,0.07-0.01,0.09c0,0.1,0.09,0.15,0.25,0.15h0.06l0.87-0.03c0.14,0,0.22,0.06,0.22,0.17
			c0,0.18-0.11,0.28-0.32,0.28l-0.75-0.03h-0.09c-0.12,0-0.2,0.02-0.24,0.06C174.71,41.2,174.68,41.3,174.66,41.45z"/>
		<path class="st0" d="M178.08,41.72c0.64-0.75,1.24-1.12,1.81-1.12c0.32,0,0.57,0.12,0.75,0.36c0.18,0.24,0.27,0.56,0.27,0.97
			c0,0.17-0.01,0.31-0.02,0.42l-0.18,1.61c-0.02,0.17-0.03,0.35-0.03,0.54c0,0.38,0.1,0.57,0.29,0.57c0.28,0,0.55-0.22,0.79-0.65
			c0.05-0.09,0.11-0.13,0.16-0.13c0.07,0,0.1,0.04,0.1,0.11c0,0.19-0.12,0.45-0.36,0.78c-0.34,0.45-0.72,0.68-1.14,0.68
			c-0.38,0-0.57-0.4-0.57-1.21c0-0.15,0.01-0.33,0.02-0.54l0.12-1.76c0.01-0.16,0.01-0.28,0.01-0.36c0-0.49-0.19-0.74-0.58-0.74
			c-0.38,0-0.73,0.15-1.05,0.46c-0.29,0.28-0.47,0.7-0.55,1.28l-0.32,2.55l-0.01,0.07c-0.02,0.17-0.15,0.25-0.4,0.25
			c-0.22,0-0.34-0.07-0.34-0.2V45.6l0.01-0.07l0.95-7.75c0.02-0.17,0.03-0.29,0.04-0.35c0.01-0.14-0.11-0.22-0.35-0.22h-0.32
			c-0.17,0-0.26-0.04-0.25-0.12c0-0.1,0.09-0.15,0.25-0.15c0.48-0.03,0.83-0.06,1.05-0.11c0.12-0.03,0.22-0.04,0.29-0.04
			c0.08,0,0.12,0.05,0.12,0.15c0,0.02,0,0.05-0.01,0.08L178.08,41.72z"/>
	</g>
	<linearGradient id="SVGID_1_" gradientUnits="userSpaceOnUse" x1="77.703" y1="31.3587" x2="77.703" y2="10.9519">
		<stop  offset="0" style="stop-color:#0079C0"/>
		<stop  offset="0.1209" style="stop-color:#0371B9"/>
		<stop  offset="0.6242" style="stop-color:#10539E"/>
		<stop  offset="1" style="stop-color:#10539E"/>
	</linearGradient>
	<path class="st1" d="M78.91,10.95c-1.38,0-2.66,0.13-3.82,0.37c-1.17,0.24-2.07,0.5-2.71,0.78c-0.61,0.27-1.03,0.59-1.26,0.94
		c-0.23,0.35-0.34,0.85-0.34,1.52v15.99c0,0.53,0.25,0.81,0.77,0.8l4.07,0.01c0.54,0,0.81-0.27,0.81-0.81v-14.9
		c0-0.52,0.18-0.92,0.54-1.22c0.36-0.29,0.84-0.44,1.42-0.44c0.54,0,0.93,0.14,1.18,0.42c0.25,0.28,0.47,0.59,0.69,0.91
		c0.22,0.31,0.47,0.62,0.77,0.9c0.29,0.28,0.76,0.42,1.4,0.42c0.74,0,1.3-0.21,1.67-0.63c0.36-0.43,0.55-1.02,0.55-1.79
		c0-0.92-0.44-1.69-1.33-2.33c-0.87-0.62-2.33-0.94-4.37-0.94C78.93,10.95,78.92,10.95,78.91,10.95"/>
	<linearGradient id="SVGID_2_" gradientUnits="userSpaceOnUse" x1="35.9408" y1="31.3529" x2="35.9408" y2="11.0441">
		<stop  offset="0" style="stop-color:#0079C0"/>
		<stop  offset="0.1209" style="stop-color:#0371B9"/>
		<stop  offset="0.6242" style="stop-color:#10539E"/>
		<stop  offset="1" style="stop-color:#10539E"/>
	</linearGradient>
	<path class="st2" d="M26.21,11.39c-1.15,0.23-2.05,0.49-2.72,0.8c-0.59,0.27-0.99,0.58-1.22,0.9c-0.23,0.32-0.35,0.84-0.35,1.55
		v15.91c0,0.53,0.26,0.8,0.77,0.8h4.02c0.53,0,0.8-0.27,0.8-0.8V16.44c0-0.84,0.22-1.45,0.66-1.84c0.45-0.38,1.14-0.57,2.09-0.57
		c0.97,0,1.68,0.27,2.16,0.82c0.47,0.55,0.71,1.32,0.7,2.32l0,13.38c0,0.53,0.27,0.8,0.8,0.8l4.02,0c0.53,0,0.8-0.27,0.8-0.8V17.14
		c0-0.95,0.21-1.71,0.64-2.26c0.41-0.56,1.12-0.85,2.11-0.85c0.97,0,1.69,0.27,2.16,0.82c0.47,0.55,0.7,1.32,0.71,2.32v13.38
		c0,0.53,0.27,0.8,0.81,0.8h4.01c0.51,0,0.76-0.27,0.76-0.8V16.9c0-1.07-0.21-1.98-0.63-2.71c-0.42-0.74-0.97-1.34-1.62-1.82
		c-0.67-0.47-1.42-0.81-2.24-1.01c-0.82-0.2-1.63-0.31-2.43-0.31c-1.66,0-3.04,0.2-4.15,0.6c-1.1,0.39-2.01,0.93-2.69,1.59
		c-0.67-0.66-1.48-1.2-2.44-1.59c-0.97-0.39-2.23-0.6-3.79-0.6C28.61,11.05,27.36,11.16,26.21,11.39"/>
	<linearGradient id="SVGID_3_" gradientUnits="userSpaceOnUse" x1="93.1398" y1="31.3484" x2="93.1398" y2="5.5828">
		<stop  offset="0" style="stop-color:#0079C0"/>
		<stop  offset="0.1209" style="stop-color:#0371B9"/>
		<stop  offset="0.6242" style="stop-color:#10539E"/>
		<stop  offset="1" style="stop-color:#10539E"/>
	</linearGradient>
	<path class="st3" d="M94.19,5.64C94.11,5.67,94,5.73,93.9,5.77L90.2,7.42c-0.21,0.09-0.35,0.24-0.43,0.41
		c-0.07,0.18-0.11,0.41-0.11,0.69l0,2.53h-1.87c-0.53,0-0.8,0.26-0.8,0.8v1.45c0,0.54,0.27,0.8,0.8,0.8h1.88v11.44
		c0,1.24,0.19,2.25,0.57,3.01c0.38,0.77,0.85,1.36,1.41,1.76c0.56,0.4,1.17,0.68,1.83,0.82c0.66,0.13,1.28,0.21,1.84,0.21
		c1.15,0,2.1-0.18,2.85-0.53c0.75-0.36,1.13-0.83,1.13-1.42c0-0.66-0.35-0.99-1.07-0.99c-0.12,0-0.25,0.01-0.36,0.02
		c-0.12,0.01-0.25,0.01-0.41,0.01c-0.59,0-1.1-0.17-1.55-0.53c-0.44-0.35-0.67-1.09-0.67-2.22l0-11.59h2.94c0.54,0,0.8-0.26,0.8-0.8
		l0-1.45c0-0.53-0.27-0.8-0.81-0.8l-2.94,0l0-4.66c0-0.53-0.26-0.8-0.77-0.8C94.38,5.58,94.28,5.6,94.19,5.64"/>
	<linearGradient id="SVGID_4_" gradientUnits="userSpaceOnUse" x1="10.0394" y1="32.0402" x2="10.0394" y2="3.8243">
		<stop  offset="0" style="stop-color:#0079C0"/>
		<stop  offset="0.1209" style="stop-color:#0371B9"/>
		<stop  offset="0.6242" style="stop-color:#10539E"/>
		<stop  offset="1" style="stop-color:#10539E"/>
	</linearGradient>
	<path class="st4" d="M6.5,4.32C5.38,4.66,4.41,5.14,3.58,5.8C2.75,6.44,2.1,7.24,1.64,8.18c-0.46,0.94-0.69,2.02-0.69,3.25
		c0,1.45,0.31,2.65,0.92,3.59c0.61,0.94,1.39,1.74,2.32,2.39c0.93,0.65,1.93,1.21,3.02,1.68c1.09,0.47,2.09,0.96,3.02,1.47
		c0.93,0.51,1.7,1.09,2.31,1.74c0.61,0.65,0.91,1.48,0.91,2.47c0,0.94-0.29,1.74-0.88,2.37c-0.58,0.63-1.41,0.95-2.48,0.95
		c-0.56,0-1.06-0.1-1.51-0.32c-0.44-0.22-0.83-0.5-1.14-0.84c-0.33-0.34-0.6-0.72-0.83-1.13c-0.22-0.41-0.42-0.79-0.57-1.15
		c-0.2-0.53-0.54-0.99-1.01-1.34c-0.47-0.35-1.06-0.53-1.78-0.53c-0.76,0-1.41,0.23-1.94,0.69c-0.53,0.45-0.81,1.09-0.8,1.9
		c0,0.69,0.21,1.43,0.63,2.22c0.43,0.79,1.03,1.51,1.84,2.16c0.81,0.65,1.78,1.19,2.95,1.63c1.16,0.43,2.48,0.65,3.95,0.65
		c1.53,0,2.9-0.19,4.11-0.59c1.21-0.39,2.23-0.94,3.06-1.64c0.84-0.71,1.46-1.54,1.9-2.51c0.43-0.97,0.65-2.02,0.65-3.17
		c0-1.56-0.31-2.85-0.94-3.87c-0.62-1.02-1.41-1.88-2.37-2.55c-0.96-0.7-1.98-1.27-3.08-1.72c-1.09-0.46-2.12-0.92-3.08-1.4
		C9.16,14.12,8.37,13.58,7.74,13c-0.62-0.59-0.93-1.34-0.93-2.25c0-1.07,0.3-1.9,0.9-2.47c0.6-0.58,1.39-0.86,2.35-0.86
		c0.51,0,0.95,0.08,1.32,0.25c0.37,0.16,0.7,0.38,0.98,0.64c0.28,0.27,0.52,0.57,0.71,0.91c0.19,0.33,0.36,0.66,0.52,0.99
		c0.23,0.51,0.56,0.94,0.99,1.28C15,11.83,15.54,12,16.18,12c0.76,0,1.4-0.22,1.91-0.65c0.51-0.43,0.76-1.06,0.76-1.87
		c0-0.51-0.16-1.09-0.5-1.74c-0.33-0.65-0.86-1.27-1.57-1.85c-0.71-0.59-1.62-1.08-2.71-1.48c-1.09-0.39-2.41-0.59-3.94-0.59
		C8.83,3.82,7.62,3.99,6.5,4.32"/>
	<linearGradient id="SVGID_5_" gradientUnits="userSpaceOnUse" x1="164.5432" y1="31.3529" x2="164.5432" y2="11.0465">
		<stop  offset="0" style="stop-color:#0079C0"/>
		<stop  offset="0.1209" style="stop-color:#0371B9"/>
		<stop  offset="0.6242" style="stop-color:#10539E"/>
		<stop  offset="1" style="stop-color:#10539E"/>
	</linearGradient>
	<path class="st5" d="M161.94,11.42c-1.16,0.24-2.06,0.5-2.7,0.78c-0.6,0.28-1.02,0.59-1.26,0.94c-0.23,0.35-0.34,0.85-0.35,1.51
		v15.91c0,0.53,0.26,0.8,0.77,0.8l4.05,0c0.54,0,0.8-0.27,0.8-0.8l0-14.83c0-0.51,0.19-0.92,0.54-1.21
		c0.35-0.29,0.83-0.44,1.41-0.44c0.54,0,0.92,0.14,1.17,0.42c0.24,0.28,0.47,0.58,0.69,0.9c0.21,0.31,0.47,0.62,0.76,0.89
		c0.29,0.28,0.76,0.42,1.4,0.42c0.74,0,1.29-0.21,1.67-0.62c0.36-0.42,0.55-1.02,0.55-1.78c0-0.92-0.44-1.69-1.32-2.32
		c-0.88-0.62-2.34-0.93-4.38-0.93C164.37,11.05,163.11,11.17,161.94,11.42"/>
	<linearGradient id="SVGID_6_" gradientUnits="userSpaceOnUse" x1="176.6035" y1="31.3529" x2="176.6035" y2="2.1004">
		<stop  offset="0" style="stop-color:#0079C0"/>
		<stop  offset="0.1209" style="stop-color:#0371B9"/>
		<stop  offset="0.6242" style="stop-color:#10539E"/>
		<stop  offset="1" style="stop-color:#10539E"/>
	</linearGradient>
	<path class="st6" d="M174.56,2.1c-0.51,0-0.76,0.28-0.76,0.81v27.64c0,0.53,0.25,0.8,0.76,0.8h4.05c0.53,0,0.8-0.27,0.8-0.8V2.91
		c0-0.54-0.27-0.81-0.8-0.81H174.56z"/>
	<linearGradient id="SVGID_7_" gradientUnits="userSpaceOnUse" x1="116.1368" y1="31.4574" x2="116.1368" y2="10.9406">
		<stop  offset="0" style="stop-color:#0079C0"/>
		<stop  offset="0.1209" style="stop-color:#0371B9"/>
		<stop  offset="0.6242" style="stop-color:#10539E"/>
		<stop  offset="1" style="stop-color:#10539E"/>
	</linearGradient>
	<path class="st7" d="M126.89,10.94c-0.58,0-0.93,0.25-1.03,0.75l-2.41,10.38c-0.14,0.55-0.25,1.16-0.34,1.8
		c-0.09,0.65-0.16,1.16-0.22,1.55c-0.05,0.39-0.08,0.6-0.08,0.65h-0.08c0-0.06-0.04-0.27-0.12-0.65c-0.08-0.39-0.19-0.9-0.32-1.55
		c-0.13-0.64-0.28-1.25-0.44-1.8l-2.97-10.34c-0.08-0.29-0.19-0.5-0.33-0.62c-0.15-0.12-0.38-0.17-0.7-0.17h-2.57
		c-0.53,0-0.87,0.27-1.03,0.79l-3.1,10.34c-0.16,0.55-0.31,1.16-0.45,1.8c-0.15,0.65-0.26,1.16-0.34,1.55
		c-0.08,0.39-0.12,0.6-0.12,0.65h-0.08c0-0.06-0.02-0.27-0.06-0.65c-0.04-0.39-0.11-0.9-0.2-1.55c-0.09-0.64-0.2-1.25-0.33-1.8
		l-2.34-10.38c-0.1-0.5-0.45-0.75-1.03-0.75h-4.04c-0.55,0-0.82,0.28-0.82,0.83c0,0.18,0.03,0.39,0.11,0.63l5.31,18.26
		c0.08,0.29,0.19,0.5,0.36,0.61c0.16,0.13,0.39,0.18,0.71,0.18h3.77c0.31,0,0.55-0.05,0.71-0.18c0.16-0.12,0.28-0.33,0.36-0.61
		l2.49-8.24c0.18-0.61,0.35-1.26,0.51-1.95c0.16-0.68,0.27-1.22,0.34-1.61c0.06-0.4,0.09-0.63,0.1-0.67h0.08
		c0,0.05,0.04,0.27,0.11,0.67c0.06,0.4,0.17,0.93,0.31,1.61c0.15,0.69,0.31,1.34,0.49,1.95l2.54,8.24c0.16,0.53,0.5,0.79,1.03,0.79
		h3.8c0.32,0,0.55-0.05,0.7-0.18c0.14-0.12,0.26-0.32,0.33-0.61l5.31-18.26c0.08-0.23,0.12-0.45,0.12-0.63
		c0-0.55-0.26-0.83-0.79-0.83L126.89,10.94z"/>
	<path class="st8" d="M144.23,9.32c2.46,0.02,4.75,0.81,6.63,2.15c1.94,1.4,3.44,3.38,4.22,5.7c0.29,0.87,0.49,1.96-0.86,2.63
		c-1.31,0.64-2.47,0.33-3.51-1.37c-1.03-1.69-1.46-2.35-2.65-3.17c-1.08-0.78-2.4-1.24-3.83-1.27c-1.43,0.03-2.75,0.49-3.83,1.27
		c-1.19,0.82-1.61,1.48-2.65,3.17c-1.04,1.7-2.39,2.11-3.62,1.44c-1.32-0.73-1.04-1.83-0.75-2.7c0.78-2.31,2.27-4.3,4.22-5.69
		C139.48,10.13,141.76,9.33,144.23,9.32"/>
	<path class="st9" d="M144.23,32.91c2.46-0.03,4.75-0.82,6.63-2.16c1.94-1.39,3.44-3.38,4.22-5.69c0.29-0.87,0.49-1.96-0.86-2.62
		c-1.31-0.64-2.47-0.34-3.51,1.36c-1.04,1.69-1.46,2.36-2.65,3.18c-1.08,0.77-2.4,1.23-3.83,1.27c-1.43-0.03-2.75-0.49-3.83-1.27
		c-1.19-0.82-1.61-1.48-2.65-3.18c-1.04-1.7-2.38-2.11-3.62-1.43c-1.32,0.73-1.04,1.82-0.75,2.69c0.78,2.31,2.27,4.3,4.22,5.69
		C139.48,32.09,141.76,32.88,144.23,32.91"/>
	<linearGradient id="SVGID_8_" gradientUnits="userSpaceOnUse" x1="60.3624" y1="31.7241" x2="60.3624" y2="10.9731">
		<stop  offset="0" style="stop-color:#0079C0"/>
		<stop  offset="0.1209" style="stop-color:#0371B9"/>
		<stop  offset="0.6242" style="stop-color:#10539E"/>
		<stop  offset="1" style="stop-color:#10539E"/>
	</linearGradient>
	<path class="st10" d="M67.88,14.31c-0.36-0.75-0.85-1.37-1.46-1.87c-0.61-0.5-1.34-0.86-2.17-1.11c-0.83-0.24-1.73-0.37-2.68-0.37
		c-1.53,0-2.82,0.17-3.89,0.5c-1.07,0.32-1.94,0.73-2.61,1.21c-0.67,0.48-1.17,1.01-1.48,1.57c-0.3,0.56-0.47,1.07-0.47,1.53
		c0,0.71,0.23,1.25,0.69,1.62c0.46,0.37,1.01,0.56,1.66,0.56c0.6,0,1.12-0.15,1.55-0.44c0.43-0.29,0.73-0.68,0.88-1.16
		c0.08-0.28,0.19-0.57,0.35-0.86c0.16-0.29,0.36-0.56,0.6-0.82c0.24-0.26,0.52-0.46,0.84-0.61c0.32-0.16,0.7-0.24,1.12-0.24
		c0.68,0,1.23,0.24,1.66,0.69c0.44,0.46,0.65,1.1,0.65,1.91l0,2.52c-1.17,0.23-2.39,0.49-3.66,0.78c-1.27,0.29-2.44,0.7-3.49,1.24
		c-1.07,0.54-1.94,1.23-2.64,2.09c-0.7,0.85-1.05,1.93-1.05,3.22c0,1.02,0.24,1.88,0.73,2.57c0.48,0.7,1.13,1.26,1.92,1.68
		c0.8,0.42,1.71,0.72,2.73,0.91c1.03,0.19,2.08,0.29,3.18,0.29c0.63,0,1.25-0.02,1.87-0.1c0.62-0.06,1.21-0.15,1.76-0.27
		c0.55-0.11,1.04-0.24,1.48-0.4c0.43-0.15,0.76-0.31,0.99-0.45c0.57-0.37,0.96-0.76,1.16-1.22c0.21-0.46,0.3-1.1,0.3-1.91l0-10.42
		C68.42,15.95,68.25,15.06,67.88,14.31z M63.15,26.96c0,0.71-0.24,1.2-0.74,1.47c-0.5,0.26-1.06,0.4-1.68,0.39c0,0,0,0-0.01,0
		c-1.03,0-1.8-0.28-2.35-0.85c-0.55-0.58-0.82-1.29-0.82-2.15c0-0.76,0.16-1.39,0.47-1.89c0.31-0.49,0.73-0.92,1.26-1.26
		c0.52-0.35,1.12-0.62,1.8-0.8c0.67-0.19,1.37-0.36,2.09-0.51V26.96z"/>
	<linearGradient id="SVGID_9_" gradientUnits="userSpaceOnUse" x1="190.6297" y1="31.3484" x2="190.6297" y2="1.9862">
		<stop  offset="0" style="stop-color:#0079C0"/>
		<stop  offset="0.1209" style="stop-color:#0371B9"/>
		<stop  offset="0.6242" style="stop-color:#10539E"/>
		<stop  offset="1" style="stop-color:#10539E"/>
	</linearGradient>
	<path class="st11" d="M198.71,1.99h-3.96c0,0,0,0-0.01,0c-0.5,0-0.74,0.28-0.74,0.8v8.97c-0.25-0.15-0.68-0.34-1.27-0.57
		c-0.59-0.22-1.33-0.34-2.21-0.34c-1.44,0-2.7,0.29-3.79,0.88c-1.08,0.6-2.01,1.39-2.75,2.38c-0.75,0.99-1.3,2.14-1.66,3.44
		c-0.37,1.29-0.55,2.64-0.55,4.02c0,1.38,0.18,2.67,0.55,3.85c0.36,1.18,0.95,2.21,1.73,3.09c0.79,0.88,1.82,1.57,3.08,2.07
		c1.25,0.51,2.79,0.76,4.6,0.76c0.62,0,1.26-0.04,1.9-0.11c0.65-0.08,1.25-0.17,1.82-0.3c0.56-0.12,1.07-0.26,1.53-0.42
		c0.45-0.15,0.8-0.32,1.05-0.49c0.55-0.36,0.94-0.74,1.15-1.15c0.21-0.41,0.32-0.98,0.32-1.72V2.79
		C199.5,2.26,199.23,1.99,198.71,1.99z M193.99,26.36c0,1.14-0.76,1.69-2.27,1.69c-0.55,0-1.1-0.15-1.62-0.45
		c-0.53-0.3-0.99-0.74-1.4-1.34c-0.4-0.59-0.73-1.33-0.98-2.22c-0.25-0.9-0.38-1.94-0.38-3.11c0-2.29,0.39-4.07,1.19-5.32
		c0.79-1.26,1.83-1.89,3.11-1.89c0.58,0,1.05,0.08,1.42,0.23c0.37,0.15,0.67,0.31,0.93,0.49V26.36z"/>
</g>
</svg>
